{
    "asset" : {
        "generator" : "Khronos glTF Blender I/O v0.9.2",
        "version" : "2.0"
    },
    "scene" : 0,
    "scenes" : [
        {
            "name" : "Scene",
            "nodes" : [
                0,
                1,
                2
            ]
        }
    ],
    "nodes" : [
        {
            "name" : "Sun",
            "rotation" : [
                0.5591214299201965,
                -0.06974878162145615,
                0.10711216926574707,
                0.8191735744476318
            ],
            "translation" : [
                -3.619030714035034,
                14.8981351852417,
                23.007587432861328
            ]
        },
        {
            "mesh" : 0,
            "name" : "Cube",
            "translation" : [
                -4.125892639160156,
                4.916475772857666,
                5.826486587524414
            ]
        },
        {
            "mesh" : 1,
            "name" : "Cylinder.002",
            "rotation" : [
                0.036860499531030655,
                -0.9764479398727417,
                -0.015918739140033722,
                0.21198438107967377
            ],
            "scale" : [
                -0.10729017108678818,
                0.35681527853012085,
                -0.13415969908237457
            ],
            "translation" : [
                -6.392357349395752,
                4.074734687805176,
                0.5844320058822632
            ]
        }
    ],
    "materials" : [
        {
            "name" : "Material.003",
            "pbrMetallicRoughness" : {
                "baseColorFactor" : [
                    0.7105538845062256,
                    0.4546782076358795,
                    0.2326781451702118,
                    1
                ],
                "metallicFactor" : 0,
                "roughnessFactor" : 0.5
            }
        },
        {
            "name" : "Material.004",
            "pbrMetallicRoughness" : {
                "baseColorFactor" : [
                    0.31853896379470825,
                    0.04420025274157524,
                    0.010195029899477959,
                    1
                ],
                "metallicFactor" : 0,
                "roughnessFactor" : 0.5
            }
        },
        {
            "name" : "Material.008",
            "pbrMetallicRoughness" : {
                "baseColorFactor" : [
                    0.10445495694875717,
                    0.3185391426086426,
                    0.06533876806497574,
                    1
                ],
                "metallicFactor" : 0,
                "roughnessFactor" : 0.5
            }
        },
        {
            "name" : "Material.006",
            "pbrMetallicRoughness" : {
                "baseColorFactor" : [
                    0.03559878468513489,
                    0.8000000715255737,
                    0.06954554468393326,
                    1
                ],
                "metallicFactor" : 0,
                "roughnessFactor" : 0.5
            }
        },
        {
            "name" : "Material.007",
            "pbrMetallicRoughness" : {
                "baseColorFactor" : [
                    0.021935133263468742,
                    0.28829658031463623,
                    0.02172701619565487,
                    1
                ],
                "metallicFactor" : 0,
                "roughnessFactor" : 0.5
            }
        },
        {
            "name" : "Material.005",
            "pbrMetallicRoughness" : {
                "baseColorFactor" : [
                    0.03475659713149071,
                    0.334323912858963,
                    0.009771889075636864,
                    1
                ],
                "metallicFactor" : 0,
                "roughnessFactor" : 0.5
            }
        },
        {
            "name" : "Material.009",
            "pbrMetallicRoughness" : {
                "baseColorFactor" : [
                    0.12827543914318085,
                    0.20190100371837616,
                    0.046185996383428574,
                    1
                ],
                "metallicFactor" : 0,
                "roughnessFactor" : 0.5
            }
        },
        {
            "name" : "Material.010",
            "pbrMetallicRoughness" : {
                "baseColorFactor" : [
                    0.10246934741735458,
                    0.039910346269607544,
                    0.05378555506467819,
                    1
                ],
                "metallicFactor" : 0,
                "roughnessFactor" : 0.5
            }
        },
        {
            "name" : "Material.002",
            "pbrMetallicRoughness" : {
                "metallicFactor" : 0,
                "roughnessFactor" : 0.5
            }
        },
        {
            "alphaMode" : "BLEND",
            "name" : "Material.001",
            "pbrMetallicRoughness" : {
                "baseColorFactor" : [
                    0.1159045472741127,
                    0.8000000715255737,
                    0.722449779510498,
                    1
                ],
                "metallicFactor" : 0,
                "roughnessFactor" : 0.5
            }
        }
    ],
    "meshes" : [
        {
            "name" : "Cube.001",
            "primitives" : [
                {
                    "attributes" : {
                        "POSITION" : 0,
                        "NORMAL" : 1,
                        "TEXCOORD_0" : 2
                    },
                    "indices" : 3,
                    "material" : 0
                },
                {
                    "attributes" : {
                        "POSITION" : 4,
                        "NORMAL" : 5,
                        "TEXCOORD_0" : 6
                    },
                    "indices" : 7,
                    "material" : 1
                },
                {
                    "attributes" : {
                        "POSITION" : 8,
                        "NORMAL" : 9,
                        "TEXCOORD_0" : 10
                    },
                    "indices" : 11,
                    "material" : 2
                },
                {
                    "attributes" : {
                        "POSITION" : 12,
                        "NORMAL" : 13,
                        "TEXCOORD_0" : 14
                    },
                    "indices" : 11,
                    "material" : 3
                },
                {
                    "attributes" : {
                        "POSITION" : 15,
                        "NORMAL" : 16,
                        "TEXCOORD_0" : 17
                    },
                    "indices" : 11,
                    "material" : 4
                },
                {
                    "attributes" : {
                        "POSITION" : 18,
                        "NORMAL" : 19,
                        "TEXCOORD_0" : 20
                    },
                    "indices" : 11,
                    "material" : 5
                }
            ]
        },
        {
            "name" : "Cylinder.002",
            "primitives" : [
                {
                    "attributes" : {
                        "POSITION" : 21,
                        "NORMAL" : 22,
                        "TEXCOORD_0" : 23,
                        "COLOR_0" : 24
                    },
                    "indices" : 25,
                    "material" : 6
                },
                {
                    "attributes" : {
                        "POSITION" : 26,
                        "NORMAL" : 27,
                        "TEXCOORD_0" : 28,
                        "COLOR_0" : 29
                    },
                    "indices" : 30,
                    "material" : 7
                },
                {
                    "attributes" : {
                        "POSITION" : 31,
                        "NORMAL" : 32,
                        "TEXCOORD_0" : 33,
                        "COLOR_0" : 34
                    },
                    "indices" : 35,
                    "material" : 8
                },
                {
                    "attributes" : {
                        "POSITION" : 36,
                        "NORMAL" : 37,
                        "TEXCOORD_0" : 38,
                        "COLOR_0" : 39
                    },
                    "indices" : 40,
                    "material" : 9
                }
            ]
        }
    ],
    "accessors" : [
        {
            "bufferView" : 0,
            "componentType" : 5126,
            "count" : 605,
            "max" : [
                0.49354276061058044,
                1.699130654335022,
                0.5712810754776001
            ],
            "min" : [
                -1.0877304077148438,
                -3.645594596862793,
                0.20138509571552277
            ],
            "type" : "VEC3"
        },
        {
            "bufferView" : 1,
            "componentType" : 5126,
            "count" : 605,
            "type" : "VEC3"
        },
        {
            "bufferView" : 2,
            "componentType" : 5126,
            "count" : 605,
            "type" : "VEC2"
        },
        {
            "bufferView" : 3,
            "componentType" : 5123,
            "count" : 978,
            "type" : "SCALAR"
        },
        {
            "bufferView" : 4,
            "componentType" : 5126,
            "count" : 59,
            "max" : [
                0.49354276061058044,
                1.1264092922210693,
                0.41035518050193787
            ],
            "min" : [
                -0.593803346157074,
                -3.645594596862793,
                0.20138509571552277
            ],
            "type" : "VEC3"
        },
        {
            "bufferView" : 5,
            "componentType" : 5126,
            "count" : 59,
            "type" : "VEC3"
        },
        {
            "bufferView" : 6,
            "componentType" : 5126,
            "count" : 59,
            "type" : "VEC2"
        },
        {
            "bufferView" : 7,
            "componentType" : 5123,
            "count" : 63,
            "type" : "SCALAR"
        },
        {
            "bufferView" : 8,
            "componentType" : 5126,
            "count" : 60,
            "max" : [
                -0.24135950207710266,
                1.5860251188278198,
                0.3595125675201416
            ],
            "min" : [
                -0.48885586857795715,
                1.3093150854110718,
                0.1241319328546524
            ],
            "type" : "VEC3"
        },
        {
            "bufferView" : 9,
            "componentType" : 5126,
            "count" : 60,
            "type" : "VEC3"
        },
        {
            "bufferView" : 10,
            "componentType" : 5126,
            "count" : 60,
            "type" : "VEC2"
        },
        {
            "bufferView" : 11,
            "componentType" : 5123,
            "count" : 60,
            "type" : "SCALAR"
        },
        {
            "bufferView" : 12,
            "componentType" : 5126,
            "count" : 60,
            "max" : [
                -0.9397903680801392,
                1.6083686351776123,
                0.4921081066131592
            ],
            "min" : [
                -1.2412008047103882,
                1.2713806629180908,
                0.20545266568660736
            ],
            "type" : "VEC3"
        },
        {
            "bufferView" : 13,
            "componentType" : 5126,
            "count" : 60,
            "type" : "VEC3"
        },
        {
            "bufferView" : 14,
            "componentType" : 5126,
            "count" : 60,
            "type" : "VEC2"
        },
        {
            "bufferView" : 15,
            "componentType" : 5126,
            "count" : 60,
            "max" : [
                -0.5549909472465515,
                1.776332974433899,
                0.37344369292259216
            ],
            "min" : [
                -0.7926601767539978,
                1.5106099843978882,
                0.1474091112613678
            ],
            "type" : "VEC3"
        },
        {
            "bufferView" : 16,
            "componentType" : 5126,
            "count" : 60,
            "type" : "VEC3"
        },
        {
            "bufferView" : 17,
            "componentType" : 5126,
            "count" : 60,
            "type" : "VEC2"
        },
        {
            "bufferView" : 18,
            "componentType" : 5126,
            "count" : 60,
            "max" : [
                -0.8609371185302734,
                1.7713559865951538,
                0.580226719379425
            ],
            "min" : [
                -1.0036170482635498,
                1.590681552886963,
                0.4307417869567871
            ],
            "type" : "VEC3"
        },
        {
            "bufferView" : 19,
            "componentType" : 5126,
            "count" : 60,
            "type" : "VEC3"
        },
        {
            "bufferView" : 20,
            "componentType" : 5126,
            "count" : 60,
            "type" : "VEC2"
        },
        {
            "bufferView" : 21,
            "componentType" : 5126,
            "count" : 1224,
            "max" : [
                32.92034912109375,
                5.922248840332031,
                62.9792594909668
            ],
            "min" : [
                -10.815427780151367,
                -1.0438640117645264,
                -4.570254802703857
            ],
            "type" : "VEC3"
        },
        {
            "bufferView" : 22,
            "componentType" : 5126,
            "count" : 1224,
            "type" : "VEC3"
        },
        {
            "bufferView" : 23,
            "componentType" : 5126,
            "count" : 1224,
            "type" : "VEC2"
        },
        {
            "bufferView" : 24,
            "componentType" : 5126,
            "count" : 1224,
            "type" : "VEC4"
        },
        {
            "bufferView" : 25,
            "componentType" : 5123,
            "count" : 2496,
            "type" : "SCALAR"
        },
        {
            "bufferView" : 26,
            "componentType" : 5126,
            "count" : 4128,
            "max" : [
                25.64203643798828,
                5.788428783416748,
                60.78884506225586
            ],
            "min" : [
                -7.416339874267578,
                -1.5366549491882324,
                -2.65963077545166
            ],
            "type" : "VEC3"
        },
        {
            "bufferView" : 27,
            "componentType" : 5126,
            "count" : 4128,
            "type" : "VEC3"
        },
        {
            "bufferView" : 28,
            "componentType" : 5126,
            "count" : 4128,
            "type" : "VEC2"
        },
        {
            "bufferView" : 29,
            "componentType" : 5126,
            "count" : 4128,
            "type" : "VEC4"
        },
        {
            "bufferView" : 30,
            "componentType" : 5123,
            "count" : 6168,
            "type" : "SCALAR"
        },
        {
            "bufferView" : 31,
            "componentType" : 5126,
            "count" : 10029,
            "max" : [
                146.93911743164062,
                10.611988067626953,
                93.67210388183594
            ],
            "min" : [
                -39.360992431640625,
                -46.13579559326172,
                -57.12621307373047
            ],
            "type" : "VEC3"
        },
        {
            "bufferView" : 32,
            "componentType" : 5126,
            "count" : 10029,
            "type" : "VEC3"
        },
        {
            "bufferView" : 33,
            "componentType" : 5126,
            "count" : 10029,
            "type" : "VEC2"
        },
        {
            "bufferView" : 34,
            "componentType" : 5126,
            "count" : 10029,
            "type" : "VEC4"
        },
        {
            "bufferView" : 35,
            "componentType" : 5123,
            "count" : 10029,
            "type" : "SCALAR"
        },
        {
            "bufferView" : 36,
            "componentType" : 5126,
            "count" : 2048,
            "max" : [
                125.10218811035156,
                -2.8641457557678223,
                92.96556854248047
            ],
            "min" : [
                -57.73858642578125,
                -24.788984298706055,
                -50.67066955566406
            ],
            "type" : "VEC3"
        },
        {
            "bufferView" : 37,
            "componentType" : 5126,
            "count" : 2048,
            "type" : "VEC3"
        },
        {
            "bufferView" : 38,
            "componentType" : 5126,
            "count" : 2048,
            "type" : "VEC2"
        },
        {
            "bufferView" : 39,
            "componentType" : 5126,
            "count" : 2048,
            "type" : "VEC4"
        },
        {
            "bufferView" : 40,
            "componentType" : 5123,
            "count" : 2058,
            "type" : "SCALAR"
        }
    ],
    "bufferViews" : [
        {
            "buffer" : 0,
            "byteLength" : 7260,
            "byteOffset" : 0
        },
        {
            "buffer" : 0,
            "byteLength" : 7260,
            "byteOffset" : 7260
        },
        {
            "buffer" : 0,
            "byteLength" : 4840,
            "byteOffset" : 14520
        },
        {
            "buffer" : 0,
            "byteLength" : 1956,
            "byteOffset" : 19360
        },
        {
            "buffer" : 0,
            "byteLength" : 708,
            "byteOffset" : 21316
        },
        {
            "buffer" : 0,
            "byteLength" : 708,
            "byteOffset" : 22024
        },
        {
            "buffer" : 0,
            "byteLength" : 472,
            "byteOffset" : 22732
        },
        {
            "buffer" : 0,
            "byteLength" : 126,
            "byteOffset" : 23204
        },
        {
            "buffer" : 0,
            "byteLength" : 720,
            "byteOffset" : 23332
        },
        {
            "buffer" : 0,
            "byteLength" : 720,
            "byteOffset" : 24052
        },
        {
            "buffer" : 0,
            "byteLength" : 480,
            "byteOffset" : 24772
        },
        {
            "buffer" : 0,
            "byteLength" : 120,
            "byteOffset" : 25252
        },
        {
            "buffer" : 0,
            "byteLength" : 720,
            "byteOffset" : 25372
        },
        {
            "buffer" : 0,
            "byteLength" : 720,
            "byteOffset" : 26092
        },
        {
            "buffer" : 0,
            "byteLength" : 480,
            "byteOffset" : 26812
        },
        {
            "buffer" : 0,
            "byteLength" : 720,
            "byteOffset" : 27292
        },
        {
            "buffer" : 0,
            "byteLength" : 720,
            "byteOffset" : 28012
        },
        {
            "buffer" : 0,
            "byteLength" : 480,
            "byteOffset" : 28732
        },
        {
            "buffer" : 0,
            "byteLength" : 720,
            "byteOffset" : 29212
        },
        {
            "buffer" : 0,
            "byteLength" : 720,
            "byteOffset" : 29932
        },
        {
            "buffer" : 0,
            "byteLength" : 480,
            "byteOffset" : 30652
        },
        {
            "buffer" : 0,
            "byteLength" : 14688,
            "byteOffset" : 31132
        },
        {
            "buffer" : 0,
            "byteLength" : 14688,
            "byteOffset" : 45820
        },
        {
            "buffer" : 0,
            "byteLength" : 9792,
            "byteOffset" : 60508
        },
        {
            "buffer" : 0,
            "byteLength" : 19584,
            "byteOffset" : 70300
        },
        {
            "buffer" : 0,
            "byteLength" : 4992,
            "byteOffset" : 89884
        },
        {
            "buffer" : 0,
            "byteLength" : 49536,
            "byteOffset" : 94876
        },
        {
            "buffer" : 0,
            "byteLength" : 49536,
            "byteOffset" : 144412
        },
        {
            "buffer" : 0,
            "byteLength" : 33024,
            "byteOffset" : 193948
        },
        {
            "buffer" : 0,
            "byteLength" : 66048,
            "byteOffset" : 226972
        },
        {
            "buffer" : 0,
            "byteLength" : 12336,
            "byteOffset" : 293020
        },
        {
            "buffer" : 0,
            "byteLength" : 120348,
            "byteOffset" : 305356
        },
        {
            "buffer" : 0,
            "byteLength" : 120348,
            "byteOffset" : 425704
        },
        {
            "buffer" : 0,
            "byteLength" : 80232,
            "byteOffset" : 546052
        },
        {
            "buffer" : 0,
            "byteLength" : 160464,
            "byteOffset" : 626284
        },
        {
            "buffer" : 0,
            "byteLength" : 20058,
            "byteOffset" : 786748
        },
        {
            "buffer" : 0,
            "byteLength" : 24576,
            "byteOffset" : 806808
        },
        {
            "buffer" : 0,
            "byteLength" : 24576,
            "byteOffset" : 831384
        },
        {
            "buffer" : 0,
            "byteLength" : 16384,
            "byteOffset" : 855960
        },
        {
            "buffer" : 0,
            "byteLength" : 32768,
            "byteOffset" : 872344
        },
        {
            "buffer" : 0,
            "byteLength" : 4116,
            "byteOffset" : 905112
        }
    ],
    "buffers" : [
        {
            "byteLength" : 909228,
            "uri" : "data:application/octet-stream;base64,"
        }
    ]
}
